<?xml version="1.0" standalone="no"?>
<!DOCTYPE svg PUBLIC "-//W3C//DTD SVG 20010904//EN"
 "http://www.w3.org/TR/2001/REC-SVG-20010904/DTD/svg10.dtd">
<svg version="1.0" xmlns="http://www.w3.org/2000/svg"
 width="96.000000pt" height="95.000000pt" viewBox="0 0 96.000000 95.000000"
 preserveAspectRatio="xMidYMid meet">
<metadata>
Created by potrace 1.16, written by Peter Selinger 2001-2019
</metadata>
<g transform="translate(0.000000,95.000000) scale(0.100000,-0.100000)"
fill="#000000" stroke="none">
<path d="M430 770 c0 -13 -7 -20 -20 -20 -19 0 -20 -7 -20 -120 0 -113 -1
-120 -20 -120 -13 0 -20 -7 -20 -20 0 -13 -7 -20 -20 -20 -19 0 -20 -7 -20
-140 0 -133 -1 -140 -20 -140 -13 0 -20 -7 -20 -20 0 -19 7 -20 180 -20 l180
0 0 160 c0 153 -1 160 -20 160 -13 0 -20 7 -20 20 0 13 -7 20 -20 20 -19 0
-20 7 -20 120 0 113 -1 120 -20 120 -13 0 -20 7 -20 20 0 17 -7 20 -40 20 -33
0 -40 -3 -40 -20z m80 -140 c0 -113 1 -120 20 -120 13 0 20 -7 20 -20 0 -13 7
-20 20 -20 13 0 20 -7 20 -20 0 -19 -7 -20 -120 -20 -113 0 -120 1 -120 20 0
13 7 20 20 20 13 0 20 7 20 20 0 13 7 20 20 20 19 0 20 7 20 120 l0 120 40 0
40 0 0 -120z m80 -350 l0 -90 -40 0 -40 0 0 60 c0 53 -2 60 -20 60 -18 0 -20
-7 -20 -60 0 -53 -2 -60 -20 -60 -18 0 -20 7 -20 60 0 53 -2 60 -20 60 -18 0
-20 -7 -20 -60 0 -53 -2 -60 -20 -60 -19 0 -20 7 -20 90 l0 90 120 0 120 0 0
-90z"/>
</g>
</svg>
