<?xml version="1.0" standalone="no"?>
<!DOCTYPE svg PUBLIC "-//W3C//DTD SVG 20010904//EN"
 "http://www.w3.org/TR/2001/REC-SVG-20010904/DTD/svg10.dtd">
<svg version="1.0" xmlns="http://www.w3.org/2000/svg"
 width="77.000000pt" height="62.000000pt" viewBox="0 0 77.000000 62.000000"
 preserveAspectRatio="xMidYMid meet">
<metadata>
Created by potrace 1.16, written by Peter Selinger 2001-2019
</metadata>
<g transform="translate(0.000000,62.000000) scale(0.100000,-0.100000)"
fill="#000000" stroke="none">
<path d="M240 460 c0 -17 -7 -20 -40 -20 -33 0 -40 -3 -40 -20 0 -13 -7 -20
-20 -20 -13 0 -20 -7 -20 -20 0 -13 -7 -20 -20 -20 -18 0 -20 -7 -20 -80 0
-73 2 -80 20 -80 13 0 20 -7 20 -20 0 -13 7 -20 20 -20 13 0 20 -7 20 -20 0
-17 7 -20 40 -20 33 0 40 -3 40 -20 0 -19 7 -20 140 -20 133 0 140 1 140 20 0
17 7 20 40 20 33 0 40 3 40 20 0 13 7 20 20 20 13 0 20 7 20 20 0 13 7 20 20
20 18 0 20 7 20 80 0 73 -2 80 -20 80 -13 0 -20 7 -20 20 0 13 -7 20 -20 20
-13 0 -20 7 -20 20 0 17 -7 20 -40 20 -33 0 -40 3 -40 20 0 19 -7 20 -140 20
-133 0 -140 -1 -140 -20z m280 -40 c0 -17 7 -20 40 -20 33 0 40 -3 40 -20 0
-13 7 -20 20 -20 18 0 20 -7 20 -80 0 -73 -2 -80 -20 -80 -13 0 -20 -7 -20
-20 0 -17 -7 -20 -40 -20 -33 0 -40 -3 -40 -20 0 -19 -7 -20 -140 -20 -133 0
-140 1 -140 20 0 17 -7 20 -40 20 -33 0 -40 3 -40 20 0 13 -7 20 -20 20 -18 0
-20 7 -20 80 0 73 2 80 20 80 13 0 20 7 20 20 0 17 7 20 40 20 33 0 40 3 40
20 0 19 7 20 140 20 133 0 140 -1 140 -20z"/>
</g>
</svg>
