<?xml version="1.0" standalone="no"?>
<!DOCTYPE svg PUBLIC "-//W3C//DTD SVG 20010904//EN"
 "http://www.w3.org/TR/2001/REC-SVG-20010904/DTD/svg10.dtd">
<svg version="1.0" xmlns="http://www.w3.org/2000/svg"
 width="94.000000pt" height="79.000000pt" viewBox="0 0 94.000000 79.000000"
 preserveAspectRatio="xMidYMid meet">
<metadata>
Created by potrace 1.16, written by Peter Selinger 2001-2019
</metadata>
<g transform="translate(0.000000,79.000000) scale(0.100000,-0.100000)"
fill="#000000" stroke="none">
<path d="M360 590 c0 -53 -2 -60 -20 -60 -17 0 -20 -7 -20 -40 0 -33 -3 -40
-20 -40 -17 0 -20 -7 -20 -40 0 -33 -3 -40 -20 -40 -18 0 -20 -7 -20 -60 0
-53 -2 -60 -20 -60 -18 0 -20 -7 -20 -60 l0 -60 280 0 280 0 0 100 0 100 -100
0 c-93 0 -100 1 -100 20 0 13 7 20 20 20 17 0 20 7 20 40 0 33 3 40 20 40 17
0 20 7 20 40 0 33 3 40 20 40 17 0 20 7 20 40 0 33 3 40 20 40 13 0 20 7 20
20 0 19 -7 20 -180 20 l-180 0 0 -60z m280 -20 c0 -33 -3 -40 -20 -40 -17 0
-20 -7 -20 -40 0 -33 -3 -40 -20 -40 -17 0 -20 -7 -20 -40 0 -33 -3 -40 -20
-40 -13 0 -20 -7 -20 -20 0 -13 -7 -20 -20 -20 -13 0 -20 -7 -20 -20 0 -19 7
-20 120 -20 l120 0 0 -60 0 -60 -240 0 -240 0 0 40 c0 33 3 40 20 40 18 0 20
7 20 60 0 53 2 60 20 60 17 0 20 7 20 40 0 33 3 40 20 40 17 0 20 7 20 40 0
33 3 40 20 40 17 0 20 7 20 40 l0 40 120 0 120 0 0 -40z"/>
</g>
</svg>
