<?xml version="1.0" standalone="no"?>
<!DOCTYPE svg PUBLIC "-//W3C//DTD SVG 20010904//EN"
 "http://www.w3.org/TR/2001/REC-SVG-20010904/DTD/svg10.dtd">
<svg version="1.0" xmlns="http://www.w3.org/2000/svg"
 width="92.000000pt" height="80.000000pt" viewBox="0 0 92.000000 80.000000"
 preserveAspectRatio="xMidYMid meet">
<metadata>
Created by potrace 1.16, written by Peter Selinger 2001-2019
</metadata>
<g transform="translate(0.000000,80.000000) scale(0.100000,-0.100000)"
fill="#000000" stroke="none">
<path d="M410 620 c0 -13 -7 -20 -20 -20 -18 0 -20 -7 -20 -60 0 -53 -2 -60
-20 -60 -17 0 -20 -7 -20 -40 0 -33 -3 -40 -20 -40 -18 0 -20 -7 -20 -60 0
-53 -2 -60 -20 -60 -17 0 -20 -7 -20 -40 l0 -40 -40 0 c-33 0 -40 -3 -40 -20
0 -18 7 -20 80 -20 73 0 80 2 80 20 0 13 -7 20 -20 20 -17 0 -20 7 -20 40 l0
40 100 0 c93 0 100 -1 100 -20 0 -13 7 -20 20 -20 13 0 20 -7 20 -20 0 -17 -7
-20 -40 -20 -33 0 -40 -3 -40 -20 0 -19 7 -20 140 -20 133 0 140 1 140 20 0
17 -7 20 -40 20 l-40 0 0 40 c0 33 -3 40 -20 40 -17 0 -20 7 -20 40 0 33 -3
40 -20 40 -17 0 -20 7 -20 40 0 33 -3 40 -20 40 -17 0 -20 7 -20 40 0 33 -3
40 -20 40 -17 0 -20 7 -20 40 0 33 -3 40 -20 40 -13 0 -20 7 -20 20 0 13 -7
20 -20 20 -13 0 -20 -7 -20 -20z"/>
</g>
</svg>
